<svg width="15" height="29" viewBox="0 0 15 29" fill="none" xmlns="http://www.w3.org/2000/svg">
<path d="M11.5391 19.5068C11.5391 18.6084 11.2217 17.8516 10.5869 17.2363C9.96191 16.6211 8.90234 16.0645 7.4082 15.5664C5.32812 14.9316 3.80957 14.1064 2.85254 13.0908C1.90527 12.0654 1.43164 10.7666 1.43164 9.19434C1.43164 7.59277 1.89551 6.2793 2.82324 5.25391C3.76074 4.22852 5.04492 3.61816 6.67578 3.42285V0.214844H8.8584V3.4375C10.499 3.66211 11.7734 4.35059 12.6816 5.50293C13.5996 6.65527 14.0586 8.23242 14.0586 10.2344H11.3633C11.3633 8.85742 11.0361 7.76367 10.3818 6.95312C9.72754 6.14258 8.84375 5.7373 7.73047 5.7373C6.56836 5.7373 5.67969 6.04004 5.06445 6.64551C4.44922 7.24121 4.1416 8.07617 4.1416 9.15039C4.1416 10.1465 4.46387 10.9424 5.1084 11.5381C5.7627 12.124 6.83203 12.6611 8.31641 13.1494C9.81055 13.6279 10.9727 14.1602 11.8027 14.7461C12.6426 15.3223 13.2578 15.9961 13.6484 16.7676C14.0488 17.5391 14.249 18.4424 14.249 19.4775C14.249 21.1279 13.751 22.4561 12.7549 23.4619C11.7686 24.4678 10.3818 25.0635 8.59473 25.249V28.0469H6.42676V25.249C4.61035 25.083 3.18457 24.4385 2.14941 23.3154C1.12402 22.1826 0.611328 20.6494 0.611328 18.7158H3.32129C3.32129 20.0732 3.67773 21.1182 4.39062 21.8506C5.10352 22.583 6.11426 22.9492 7.42285 22.9492C8.70215 22.9492 9.70801 22.6416 10.4404 22.0264C11.1729 21.4111 11.5391 20.5713 11.5391 19.5068Z" fill="black"/>
</svg>
